<?xml version="1.0" encoding="UTF-8"?>
<!DOCTYPE svg PUBLIC "-//W3C//DTD SVG 1.1//EN" "http://www.w3.org/Graphics/SVG/1.1/DTD/svg11.dtd">
<!-- Creator: CorelDRAW -->
<svg xmlns="http://www.w3.org/2000/svg" xml:space="preserve" width="210mm" height="297mm" style="shape-rendering:geometricPrecision; text-rendering:geometricPrecision; image-rendering:optimizeQuality; fill-rule:evenodd; clip-rule:evenodd"
viewBox="0 0 210 297"
 xmlns:xlink="http://www.w3.org/1999/xlink">
 <defs>
  <style type="text/css">
   <![CDATA[
    .str0 {stroke:#9ECE2B;stroke-width:0.25}
    .str1 {stroke:#383431;stroke-width:0.5}
    .fil1 {fill:none}
    .fil3 {fill:#383431}
    .fil5 {fill:#84C225}
    .fil4 {fill:#C2C1C1}
    .fil0 {fill:white}
    .fil6 {fill:#1F1A17;fill-rule:nonzero}
    .fil2 {fill:#383431;fill-rule:nonzero}
   ]]>
  </style>
 </defs>
 <g id="Слой_x0020_1">
  <metadata id="CorelCorpID_0Corel-Layer"/>
  <rect class="fil0" x="3.768" y="78.903" width="110.371" height="61.6598"/>
  <polygon class="fil1 str0" points="6.2589,84.3141 32.611,133.936 50.7955,81.6943 6.2589,110.204 60.0418,125.769 37.2342,97.2589 70.3669,107.276 78.8427,80.6155 31.0699,108.817 66.206,116.368 59.8877,81.5402 98.1059,113.286 73.9113,139.176 76.8393,111.899 102.729,92.6358 88.089,134.553 81.7707,117.601 107.815,104.502 11.0362,115.598 102.575,124.844 "/>
  <polygon class="fil2" points="38.6927,100.915 39.2503,100.915 44.4019,116.108 42.367,116.108 38.6069,104.923 32.7739,116.108 32.4117,116.108 26.5596,104.923 22.8186,116.108 20.779,116.108 25.9591,100.915 26.4881,100.915 32.6071,112.8 "/>
  <path id="1" class="fil2" d="M60.0663 109.083c-0.1859,1.706 -0.8817,3.069 -2.0921,4.0936 -1.2105,1.0246 -2.6592,1.5345 -4.3415,1.5345 -2.235,0 -4.0602,-0.8864 -5.4756,-2.6687l-1.5488 1.0198c0.7244,1.158 1.7347,2.0158 3.0309,2.5829 1.2915,0.5671 2.6544,0.8531 4.0746,0.8531 2.4495,0 4.451,-0.7768 6.0141,-2.3256 1.5583,-1.5488 2.3351,-3.3931 2.3351,-5.5328 0,-2.2637 -0.8006,-4.1794 -2.4066,-5.7521 -1.606,-1.5726 -3.6361,-2.3637 -6.0951,-2.3637 -1.4249,0 -2.7784,0.3098 -4.0698,0.9293 -1.2867,0.6195 -2.2494,1.4916 -2.8832,2.621l1.5488 0.9627c1.3439,-1.7776 3.1691,-2.6687 5.4899,-2.6687 1.6203,0 3.0119,0.4718 4.1794,1.4106 1.1676,0.9388 1.9158,2.1492 2.2399,3.6313l-6.7576 0 0 1.6728 6.7576 0z"/>
  <polygon id="12" class="fil2" points="88.3975,116.108 65.6944,116.108 65.6944,100.915 67.6625,100.915 67.6625,114.263 76.0261,114.263 76.0261,100.915 78.0229,100.915 78.0229,114.263 86.4008,114.263 86.4008,100.915 88.3975,100.915 "/>
  <circle class="fil3" cx="21.6154" cy="116.008" r="1.77217"/>
  <circle class="fil3" cx="26.2263" cy="102.653" r="1.77217"/>
  <circle class="fil3" cx="32.5569" cy="114.673" r="1.77217"/>
  <circle class="fil3" cx="38.7752" cy="102.499" r="1.77217"/>
  <circle class="fil3" cx="43.0902" cy="116.108" r="1.77217"/>
  <circle class="fil3" cx="47.8675" cy="103.731" r="1.77217"/>
  <circle class="fil3" cx="54.1239" cy="108.224" r="1.77217"/>
  <circle class="fil3" cx="47.7669" cy="112.8" r="1.77217"/>
  <circle class="fil3" cx="66.6142" cy="102.036" r="1.77217"/>
  <circle class="fil3" cx="76.9934" cy="101.574" r="1.77217"/>
  <circle class="fil3" cx="87.3644" cy="101.728" r="1.77217"/>
  <circle class="fil3" cx="66.4716" cy="114.848" r="1.77217"/>
  <circle class="fil3" cx="87.2494" cy="114.845" r="1.77217"/>
  <g id="_131407720">
   <path id="_131272360" class="fil4" d="M94.2239 112.657c0.9924,-2.0075 3.5859,-3.737 6.9825,-3.4015 5.7229,0.5652 8.8252,7.2404 5.4676,11.7823 -2.9431,3.9815 -6.5895,4.4358 -9.9937,7.2422 -2.9317,2.4168 -8.5798,2.9551 -10.1826,2.0759 -0.8488,-0.4656 -1.606,-0.0521 -1.6725,-0.6973 -0.1877,-1.8206 2.0021,-6.0461 3.1046,-6.674 0.2299,-0.5683 0.8905,-1.6849 1.1862,-1.8697 0.9881,-0.6178 2.9812,-0.4624 3.5379,0.1107 -0.303,-0.3348 -0.7122,-0.7513 -0.685,-1.211 0.0352,-0.5911 0.6112,-1.2542 1.1429,-1.9079 0.4008,-0.4927 0.3085,-1.4986 0.3085,-2.6666 0,-0.7187 0.3124,-2.9795 0.8036,-2.7831z"/>
   <path id="_131195992" class="fil1 str1" d="M92.512 121.274c-1.0907,-0.3151 -1.8483,-0.5479 -2.7985,-0.2844 -0.7664,0.2126 -1.3079,0.6864 -1.7324,1.4645 -0.4293,0.7862 -0.105,0.9055 -0.5559,1.0179 -1.2576,0.3137 -2.3399,4.0232 -2.6929,5.2457 -0.3972,1.3763 0.2392,1.3972 1.4641,1.7321 1.5332,0.4192 3.4188,0.4292 5.2664,0.063 1.8477,-0.3662 3.6574,-1.1088 5.0388,-2.195"/>
   <path id="_131196160" class="fil1 str1" d="M89.7135 120.99c-0.821,-1.1946 -0.9735,-1.6958 -1.0291,-2.7849 -0.1515,-2.9681 4.027,-1.7035 3.5424,-0.0248 -0.3135,1.0861 -0.2364,1.1621 -0.2655,2.2802 -0.0173,0.6655 1.4916,1.6672 1.95,0.9558 0.5633,-0.8742 0.8314,-1.0656 1.0418,-1.7943 0.7793,-2.6994 6.1564,-2.0209 6.8219,1.3148 0.4446,2.2289 -0.2297,3.547 -2.2333,4.7891 -1.375,0.8524 -3.9108,0.1669 -3.9493,0.3003"/>
   <path id="_131196880" class="fil1 str1" d="M91.9875 119.307c1.4156,-1.5728 -0.5846,0.6713 0.5447,-0.5998 1.619,-1.8221 0.1097,-4.0099 1.8356,-6.5511 2.3312,-3.4323 7.4377,-3.6107 10.2619,-1.582 5.6237,4.0399 3.1153,8.8184 1.2118,11.4716 -2.0369,2.8392 -8.6171,5.5624 -9.6057,6.4733"/>
   <path id="_131661456" class="fil1 str1" d="M98.0976 127.398c-0.0293,0.4477 -0.0738,1.6155 -0.0078,1.5932 1.4426,-0.4886 2.5709,-2.1661 3.203,-3.3596"/>
   <path id="_131661864" class="fil5 str1" d="M103.628 109.989c0.463,-0.8644 0.6425,-0.9722 0.5389,-1.9368 -0.1437,-1.3393 -1.1063,-4.7134 0.966,-5.6334 2.084,-0.9252 4.8078,-0.1411 5.3639,-0.8805 1.6207,-2.1547 -0.1948,-3.0498 0.1995,-6.288 0.1351,-1.1099 0.9437,-2.244 -0.4377,-0.8797 -1.4814,1.463 0.0525,4.409 -0.2524,5.6934 -0.3319,1.3985 -2.4541,0.7429 -3.9386,1.0695 -2.1741,0.4783 -2.9376,1.2084 -3.4392,3.3215 -0.2954,1.2446 0.7189,2.1462 0.4365,3.3358 -0.3223,1.3583 -0.7311,1.7607 -0.6339,1.7599 0.1922,-0.0018 0.634,0.1199 1.197,0.4383z"/>
   <circle id="_131271640" class="fil3" transform="matrix(0.713801 0.0559143 -0.0559143 0.713801 90.5582 125.826)" r="2.0205"/>
  </g>
  <path class="fil6" d="M69.0364 119.031c-0.2275,0 -0.393,0.0325 -0.4998,0.0975 -0.1052,0.065 -0.2847,0.2522 -0.5385,0.5648 -0.3203,0.393 -0.5616,0.639 -0.7257,0.7381 0.1455,0.0371 0.2801,0.0943 0.4054,0.1733 0.1254,0.0773 0.3219,0.3063 0.588,0.6839l0.6344 0.9021 0.5354 0c0.2104,0 0.3172,0.0634 0.3172,0.1903 0,0.1269 -0.1068,0.1903 -0.3172,0.1903l-0.5354 0c-0.1547,0 -0.2568,-0.0387 -0.3079,-0.1176 -0.0093,-0.0186 -0.0248,-0.0433 -0.0464,-0.0727l-0.6437 -0.9516c-0.2166,-0.3234 -0.4348,-0.5338 -0.653,-0.6313 -0.2166,-0.096 -0.4905,-0.1439 -0.8201,-0.1439l-0.28 0 0 1.5365 0.4611 0c0.212,0 0.3172,0.0634 0.3172,0.1903 0,0.1269 -0.1052,0.1903 -0.3172,0.1903l-1.309 0c-0.212,0 -0.3172,-0.0634 -0.3172,-0.1903 0,-0.1269 0.1052,-0.1903 0.3172,-0.1903l0.4611 0 0 -3.1597 -0.4611 0c-0.212,0 -0.3172,-0.0634 -0.3172,-0.1903 0,-0.13 0.1052,-0.1949 0.3172,-0.1949l1.309 0c0.212,0 0.3172,0.0649 0.3172,0.1949 0,0.1269 -0.1052,0.1903 -0.3172,0.1903l-0.4611 0 0 1.2425 0.28 0c0.2445,0 0.4318,-0.0371 0.5617,-0.1098 0.13,-0.0727 0.3033,-0.2399 0.5168,-0.5029 0.3729,-0.4534 0.6391,-0.735 0.8031,-0.8479 0.1625,-0.1114 0.4085,-0.1671 0.735,-0.1671 0.1531,0 0.2537,0.0185 0.3001,0.0541 0.048,0.0356 0.0712,0.1253 0.0712,0.2677l0 0.5214c0,0.1811 -0.065,0.2724 -0.1949,0.2724 -0.1238,0 -0.1857,-0.0805 -0.1857,-0.2414l0 -0.489z"/>
  <path id="1" class="fil6" d="M74.4768 119.031l0 3.1597 0.3806 0c0.212,0 0.3172,0.0634 0.3172,0.1903 0,0.1269 -0.1052,0.1903 -0.3172,0.1903l-1.1388 0c-0.2105,0 -0.3172,-0.0634 -0.3172,-0.1903 0,-0.1269 0.1067,-0.1903 0.3172,-0.1903l0.3775 0 0 -3.1597 -1.8722 0 0 2.1895c0,0.5292 -0.1161,0.9114 -0.3451,1.1466 -0.229,0.2367 -0.5276,0.3543 -0.8928,0.3543 -0.1516,0 -0.2986,-0.0186 -0.4441,-0.0542 -0.1454,-0.0371 -0.2321,-0.0758 -0.2584,-0.116 -0.0278,-0.0418 -0.0417,-0.1238 -0.0417,-0.2476l0 -0.376c0,-0.1903 0.068,-0.2862 0.2042,-0.2862 0.1176,0 0.1779,0.0882 0.1779,0.263l0 0.3729c0.1377,0.0325 0.2615,0.0495 0.3714,0.0495 0.5617,0 0.8433,-0.3682 0.8433,-1.1063l0 -2.1895 -0.4998 0c-0.2104,0 -0.3172,-0.0634 -0.3172,-0.1903 0,-0.13 0.1068,-0.1949 0.3172,-0.1949l3.5186 0c0.212,0 0.3172,0.0649 0.3172,0.1949 0,0.1269 -0.1052,0.1903 -0.3172,0.1903l-0.3806 0z"/>
  <path id="12" class="fil6" d="M76.8349 119.031l1.6092 2.9198 1.5953 -2.9198 -0.3358 0c-0.212,0 -0.3172,-0.0634 -0.3172,-0.1903 0,-0.13 0.1052,-0.1949 0.3172,-0.1949l0.9748 0c0.212,0 0.3172,0.0649 0.3172,0.1949 0,0.1269 -0.1052,0.1903 -0.3172,0.1903l-0.2135 0 -2.2034 4.0293c-0.1841,0.3357 -0.3605,0.5694 -0.5292,0.7009 -0.1702,0.1315 -0.362,0.1965 -0.5756,0.1965 -0.164,0 -0.3094,-0.0155 -0.4379,-0.0464 -0.1284,-0.0325 -0.2135,-0.0712 -0.2568,-0.1161 -0.0418,-0.0448 -0.0635,-0.1346 -0.0635,-0.2677l0 -0.526c0,-0.2043 0.0635,-0.308 0.1904,-0.308 0.1268,0 0.1903,0.096 0.1903,0.2863l0 0.557c0.1129,0.0279 0.2166,0.0403 0.3141,0.0403 0.181,0 0.3265,-0.0434 0.4363,-0.1316 0.1114,-0.0866 0.243,-0.2723 0.3977,-0.557l0.2893 -0.5307 -1.8181 -3.3268 -0.2259 0c-0.212,0 -0.3172,-0.0634 -0.3172,-0.1903 0,-0.13 0.1052,-0.1949 0.3172,-0.1949l1.0104 0c0.212,0 0.3172,0.0649 0.3172,0.1949 0,0.1269 -0.1052,0.1903 -0.3172,0.1903l-0.3481 0z"/>
  <path id="123" class="fil6" d="M82.1484 119.393c0.4533,-0.5895 1.063,-0.8835 1.8305,-0.8835 0.6839,0 1.2239,0.2027 1.6215,0.6096 0.3962,0.407 0.5958,0.9052 0.5958,1.4978 0,0.5927 -0.2027,1.0909 -0.605,1.4963 -0.4039,0.4054 -0.9439,0.6081 -1.6216,0.6081 -0.4828,0 -0.8959,-0.1037 -1.2394,-0.311 -0.3435,-0.2074 -0.5942,-0.4704 -0.7551,-0.7892 -0.1594,-0.3187 -0.2399,-0.7736 -0.2399,-1.3662 0,-0.8309 0.0527,-1.4065 0.1594,-1.7253 0.1052,-0.3187 0.2832,-0.5694 0.5338,-0.7551 0.2507,-0.1841 0.6112,-0.2754 1.0801,-0.2754l0.8649 0c0.4503,0 0.7056,-0.0928 0.7659,-0.277 0.0372,-0.1021 0.0666,-0.1655 0.0913,-0.1903 0.0232,-0.0248 0.0666,-0.0371 0.1269,-0.0371 0.1424,0 0.2135,0.0742 0.2135,0.2228 0,0.1686 -0.0851,0.3218 -0.2553,0.458 -0.1686,0.1362 -0.4673,0.2042 -0.8974,0.2042l-0.9098 0c-0.3033,0 -0.5509,0.0511 -0.7458,0.1563 -0.195,0.1037 -0.3358,0.2491 -0.4225,0.4379 -0.0866,0.1872 -0.15,0.4936 -0.1918,0.9191zm0.0046 1.2147c0,0.4394 0.1532,0.8355 0.4611,1.1883 0.3095,0.3543 0.7613,0.5307 1.3555,0.5307 0.5477,0 0.9872,-0.1671 1.3167,-0.5013 0.3312,-0.3342 0.4967,-0.7396 0.4967,-1.2177 0,-0.4766 -0.1655,-0.882 -0.4967,-1.2147 -0.3295,-0.3327 -0.769,-0.4982 -1.3167,-0.4982 -0.5493,0 -0.9903,0.1655 -1.3214,0.4982 -0.3312,0.3327 -0.4952,0.7381 -0.4952,1.2147z"/>
 </g>
</svg>
